# xmcd
# 
# Track frame offsets:
#     150
#     45297
#     94227
#     123910
#     144015
#     175350
#     206015
#     226022
#     279792
# 
# Disc length: 4122
# 
# Revision: 1
# Processed by: cddbd v1.5.2PL0 Copyright (c) Steve Scherf et al.
# Submitted via: BonkEnc v1.0.8
# 
DISCID=6a101809
DTITLE=Jerker Lindström - April in Täby
DYEAR=2000
DGENRE=Big Band
TTITLE0=Tango Cantabile
TTITLE1=Storbandtrubbel
TTITLE2=Humble Embracement
TTITLE3=Alfred
TTITLE4=Mylla
TTITLE5=Blå Boulevard
TTITLE6=Aska
TTITLE7=Glöd
TTITLE8=Eld
EXTD=YEAR: 2000
EXTT0=
EXTT1=
EXTT2=
EXTT3=
EXTT4=
EXTT5=
EXTT6=
EXTT7=
EXTT8=
PLAYORDER=
